<?xml version="1.0" encoding="utf-8"?>
<!-- Generator: Adobe Illustrator 18.0.0, SVG Export Plug-In . SVG Version: 6.00 Build 0) Byla: San Andreas Vektorinis Žaidimo Žemėlapis . Versija: 1.0.0 . Autorius: Karolis Vaikutis -->
<!DOCTYPE svg PUBLIC "-//W3C//DTD SVG 1.1//EN" "http://www.w3.org/Graphics/SVG/1.1/DTD/svg11.dtd">
<svg version="1.1" xmlns="http://www.w3.org/2000/svg" xmlns:xlink="http://www.w3.org/1999/xlink" x="0px" y="0px"
	 viewBox="0 0 6671 6671" enable-background="new 0 0 6671 6671" width="1000" height="1000" xml:space="preserve">
<g id="Whetstone">
	<path fill-rule="evenodd" clip-rule="evenodd" fill="#CECECE" d="M2173.6,6150.4c-3-2.3,0.3-4.8,1-9s-0.8-3-1-6s0.3-5.5-3-10
		s-0.3-10,1-17s-2.5-12.8-5-19s-3-10-12-17s-2-16-5-31s-14-26-12-32s5-18,4-29s-6-27-14-42s-16-20-34-30s-13-22-13-36s6-31,14-38
		s3-14,0-21s-4-13-3-25s1-16-4-22s-7-21-3-36s16-67,20-78s24-64,27-86s14-64,18-73s8-35,14-42s3-28-1-40s-19-25-35-43s-17-11-35-16
		s-48-8-71-9s-28,3-42,8s-22,17-31,18s-9-7-7-13s13-26,13-26s10-8,19-17s28-43,28-43s-8-44-11-52s-13-58-14-80s-5-29-20-43
		s-21-17-32-30s-21-8-29-8s-9-8-16-12s-13,1-28-8s-36-11-54-9s-27,9-42,13s-33,11-40,7s-23-16-30-20s-11-2-24-6s-26,3-35,3
		s-12-7-12-11s2-12,2-24s-8-40-11-57s-20-24-39-24s-36-6-42-12s-17-26-30-34s-21-7-34-11s-11-9-17-16s0-10,3-20s0-20-12-29
		s-20-6-20-6l-15,5c0,0-12-12-20-21s-17-23-24-44s-15-27-25-39s-26-20-42-31s-41-46-53-70s-29-59-52-93s-42-61-59-79s-39-31-74-49
		s-68-40-129-73s-66-35-87-41s-58-6-67-6s-12,1-25,24s-28,50-28,50s-5-2-12-6s-13-5-22-4s-15,4-21,12s-10,17-11,29s-12,15-32,27
		s-54,52-75,66s-59,27-70,33s-81,49-81,49c-1.3,0.8-3.3,5-5,12s-6.5,8.3-8,12s-1.5,17.8-2,25s0.5,50.3,0,58s-2.8,11.8-7,21
		s-6.5,21.5-8,32s-5.3,23-6,32s4.5,29,4,44s5,36.3,5,52s5,21.8,12,41s-0.8,51.8-4,61s-5.3,33.3,1,51s-4.5,45.3-8,56s-2.3,35.5,2,45
		s3.8,31,7,38s10,18,11,26s0.3,26.3-1,40s6.8,25.8,12,29s9.5,10.8,7,19s-6.5,27.5-6,31s11.5,19,14,26s25,35.8,30,42s16,17,21,19
		s12.5-0.3,23,1s28.8,11.5,29,13s-6,15-5,21s10,24,10,24s0,2,13,2s27.8,7,33,13s26,19,26,19s7.3,23.5,10,25s21.8,6.5,28,10
		s16.5,18.8,20,24s19.8,12.5,29,17s18.5,19,18,22s-3.5,3.5-9,8s-5.5,7.5-7,8s-4.3-0.3-11,7s-12.8,13.5-26,18s-18.8,11.5-25,17
		s-18.8,12.5-23,17s-27.8,14.5-41,25s-40,49-40,49s-1,29.5-1,40s-5.5,19.3-7,29s0.5,16.8,3,22s-2.5,33.8-5,44s6.8,42.3,11,52
		s23.3,28.5,25,32s6,24.5,8,31s7.3,17.3,19,35s15.8,40.3,17,49s19,57.8,23,70s50.8,61.8,56,66s31,32.3,46,50s34,18,34,18
		s138.3-3,164-3s35.3-8,41-12s11-3,11-3s-1.3-1,22,1s50.5,1.5,58-1s29.8-9.5,37-11s17,2.3,35,6s24.3-1.5,39-4s35.5-0.5,43,1
		s25,7.3,34,9s31.8,1.5,40,0s17-3.3,33-1s17,5,17,5s15.5-0.3,21-2s20.5-10,34-18s18-15.8,23-19s27-13,34-16s20-14.8,27-18
		s18-14.5,20-15s13.8-2.3,22-4s21.5-6.5,24-9s15-16.5,20-19s20-8,20-8s22.3-0.5,32,1s9.3,4.8,13,6s11.8,11.8,17,17s4.5,5.5,27,7
		s29-7,29-7s2.8,2.3,3,7s10,11.5,14,13s20.3,16,26,18s15.5,18.5,21,26s12.8,20.8,15,29s10.5,11.8,16,19s31.8,37.5,61,60
		s44.8,24,56,26s33.5,7.3,46,10s24.3-1.3,32-3s16.8,4.3,24,6s13.8-2.5,18-5s10.8-0.5,29-2s20.3-7.5,26-12s6.8-10.3,12-10
		s9.5,2.3,20,7s14.5,3.8,20,2s22.3-9.3,28-13s8.3-16.3,10-28s-0.8-26.5,1-28s3.3-3.8,7-8s5.5-14.5,7-22s-0.3-12.8,0-17s1-3,4-3
		s1.3-1.8,3-6S2176.6,6152.6,2173.6,6150.4z M1833.6,5663.4c0,0-1.3,0-8,0s-9.3,0.7-13,0s-5.3-2.7-10-10s-7.3-17.7-8-29
		c-0.7-11.3-1-25-3-32s-0.7-13.7,2-19c2.7-5.3,3.3-12.3,4-18c0.7-5.7,4-7,8-10s3-6.7,3-16c0-9.3,4.8-17.7,12-21c11-5,10.3,0.3,11,6
		c0.7,5.7-5,12-6,22s-3.3,25.3-4,32c-0.7,6.7,7.7,30.3,11,42C1835.9,5622.1,1833.6,5663.4,1833.6,5663.4z M1925.6,5387.4
		c-5,5-11.7,10-14,17s-7.7,16.3-13,24c-5.3,7.7-12,15.7-18,23c-6,7.3-16,15-18,21s-8.7,8.7-16,10c-7.3,1.3-15.3,1.3-13-3
		c2.3-4.3,4.3-4.7,9-8c4.7-3.3,5.3-8.3,8-14c2.7-5.7,7.3-4.7,14-8c6.7-3.3,7-8.3,8-17c1-8.7,2.7-17.7,9-28c6.3-10.3,13.3-11.7,21-15
		c7.7-3.3,13.4-11.8,23-15C1935.6,5371.1,1930.6,5382.4,1925.6,5387.4z"/>
</g>
<g id="Tierra_Robada">
	<g>
		<path fill="#CECECE" d="M2549.5,1250.5l-5-7l3-7c0,0-4-5.5-7-6c-0.4-0.1-0.8-0.1-1-0.2v0.2c0,0-1.5-0.4,0-0.2v-24.8c0,0,7-5.5,7-8
			s1-7-1-8c-2-1-3.5-3.5-8-3s-9.5,3-10,6s-1,6.5,1,9c2,2.5,5,6,5,6l1,23c0,0-6,2.5-7,5c-1,2.5-1,4,0,6s4,5,4,5l7,1l5,4
			c0,0-26.5,10.5-30,12c-3.5,1.5-39,19.5-51,28c-12,8.5-29,21-29,21s-13-9-19-17c-6-8-28-23-28-23s-1-14.5-1-17c0-2.5-8-17-8-17v-22
			c0,0-18.5-16-23-28c-4.5-12-3-13-3-13h-51l-13-14c0,0-16.5-4-20-4c-3.5,0-21,0-27,1c-6,1-12,1-12,1s-7,8.5-13,14
			c-6,5.5-14.5,19-22,20c-7.5,1-28,1-42,0c-14-1-22-1-22-1s-7,3-13,9c-6,6-17,19-22,22c-5,3-21.5,10-28,11c-6.5,1-37.5-1.5-43,0
			c-5.5,1.5-5.5,3.5-13,7c-7.5,3.5-15,5-15,5s0,0-6-4c-6-4-12.5-6.5-19-4c-6.5,2.5-9.5,7-18,2c-8.5-5-21-13-22-18s-2.5-16.5,4-18
			c6.5-1.5,29,0.5,38,0c9-0.5,20.5,1.5,30,4c9.5,2.5,29,3.5,31,2c2-1.5,23.5-29.5,25-31c1.5-1.5,32-2.5,39-3c7-0.5,75-1,78-2
			c3-1,35-31.5,37-34c2-2.5,13-14,15-15c2-1,14.5,0.5,18-2c3.5-2.5,23-15,27-19c4-4,11-15,11-15s28.5-2.5,33-4
			c4.5-1.5,15.5-13.5,18-19c2.5-5.5,4-11,4-11s8-13,5-26c-3-13-19.5-27-29-34c-9.5-7-14.5-17-14-41s1-26,1-26s-32-28.5-35-33
			c-3-4.5,0-23.5-1-29c-1-5.5-1-20,1-25c2-5-13-16-15-25c-2-9-13-21-17-25c-4-4-2-23-7-28s-37.5-26.5-40-31c-2.5-4.5-17-22-23-30
			c-6-8-5-21-5-21l-16-14l9-5l2-13c0,0,16-11.5,12-18c-4-6.5-15-9.5-26-11c-11-1.5-25.5,1-29,1c-3.5,0-13-15-13-15s4-13,0-21
			s-8-20-8-20l14-29c0,0,16-5,18-6c2-1-2,2,9,2c11,0,28-13,28-13l-23-163c-15,3-21-0.5-37,0c-16,0.5-27.5,1-45,2
			c-17.5,1-26.5,0.5-37,2c-10.5,1.5-14.5-4-21-7c-6.5-3-9-3.5-21-2c-12,1.5-19,2.5-25,4c-6,1.5-17,1-29,1c-12,0-31-1-26-2
			c5-1-0.5-1-19,2c-18.5,3-30-1-40-3s-28.5-1.5-40,1c-11.5,2.5-27,9-27,9s0-0.5-11,0c-11,0.5-18,0-18,0s0-0.5-7-4c-7-3.5-7.5-4-14-2
			c-6.5,2-17,11-22,13s-12-1-12-1s0,0-10-3c-10-3-9.5-7-17-10c-7.5-3-11.5-1.5-17,0c-5.5,1.5-7.5,4.5-18,9c-10.5,4.5-11,4.5-15,5
			c-4,0.5-11,0.5-21-1c-10-1.5-30.5-1-45,0c-14.5,1-43,1-43,1s-0.5-0.5-9,0c-8.5,0.5-23-0.5-31,1c-8,1.5-15.5,4.5-18,6
			c-2.5,1.5-7.5,1-10,0c-2.5-1-6,0-6,0s0-0.5-5-1s-8.5,0-10,1c-1.5,1-6.5-5-12-7c-5.5-2-14-1.5-19,0c-5,1.5-15.5,9.5-19,12
			c-3.5,2.5-11,12-11,12s-5,9.5-7,10c-2,0.5-6-2-8-2c-2,0-5.5-8.5-8-11c-2.5-2.5-4-17-7-25c-3-8-9-6-9-6s-7-7-10-8
			c-3-1-7.5-0.5-12,0s-6.5,1.5-7,4c-0.5,2.5-1.5,5-4,7c-2.5,2-2.5,2-5,2c-2.5,0-5-2-7-1c-2,1-5,3-5,3s-5-5-7-5c-2,0-3.5,1.5-5,4
			c-1.5,2.5-10,9.5-14,10s-6.5-2-10-6c-3.5-4-9-13.5-13-14c-4-0.5-13.5,3-19,6c-5.5,3-6,1.5-11,1c-5-0.5-9-5.5-18-7
			c-9-1.5-17.5,1-25,4c-7.5,3-37,20.5-46,25c-9,4.5-43,22.5-50,23c-7,0.5-23.5,7.5-33,8c-9.5,0.5-23,3-31,5c-8,2-28,7-34,7
			c-6,0-14.5-2-22-2c-7.5,0-12.5-4.5-17-7c-4.5-2.5-16.5-5.5-27-9c-10.5-3.5-19-2-30-3c-11-1-42,0-59-2c-17-2-35.5-1.5-43,1
			c-7.5,2.5-22,8-29,8c-7,0-29,10.5-38,13c-9,2.5-17.5,2.5-21,1c-3.5-1.5-27-3.5-37-5c-10-1.5-22-1.5-41-2c-19-0.5-35.5-1-43,0
			c-7.5,1-31-2-58-2c-27,0-33.5,6.5-44,14c-10.5,7.5-17,16-23,22c-6,6-15.5,14-25,26c-9.5,12-7,28.5-9,41c-2,12.5-7.5,29-10,39
			c-2.5,10,0,32,3,47c3,15,5.5,36,7,51c1.5,15,1.5,24,5,33c3.5,9,2.5,23.5,2,31s-6.5,33.5-7,38c-0.5,4.5-10,56.5-10,59
			c0,2.5-7,13.5-9,20c-2,6.5-2,27.5-3,36c-1,8.5-10,61-9,65c1,4,0,40,1,51c1,11,8,31,8,31s19,50,21,53c2,3,12,30,13,33
			c1,3,0,11,1,13c1,2-1,15-1,15v21l2,22l6,13l6,16v24l5,13c0,0,9.5-5.5,13-6c3.5-0.5,11,1,11,1s7-2.5,12-3c5-0.5,16-1,20-1
			s16,3,16,3h16l3-8c0,0,9.5-13.5,20-22c10.5-8.5,20.5-7.5,28-10c7.5-2.5,28-9,38-15s32-16,32-16l-1,16l-6,1v8l55,3l1-10l-10-1
			c0,0-1.5-5.5,0-6c1.5-0.5,20-8.5,25-11s16-14,19-22c3-8-1.5-21,0-27c1.5-6,4-20,4-20s33.5-2,39,2c5.5,4,75,24,75,24h129v-14l-34-2
			l-24-8l1-75h9v-12l48-9h29v41l13-1l1-48h17v49l11,18l2,47h9l1-46c0,0,48-0.5,59-5c11-4.5,28-27,33-40c5-13-1.5-19.5-7-29
			s-20-24-20-24l45-49l-12-7l-11,11l-13-12l-4,3l13,13l-16,17l-13-15l-4,3l12,17l-9,6l-40-40l8-8l17,13l2-5l-14-12l14-17l17,14l4-4
			l-15-13l13-14l-9-8l-46,47c0,0-1.5-2-8-9c-6.5-7-48-35-48-35l4-7c0,0-5-13-7-16c-2-3-1.5-11,4-17c5.5-6,21-9.5,33-11
			c12-1.5,47-16.5,55-24c8-7.5,28-17,28-17l75,23c0,0-1,36,5,40c6,4,14,2,23,9c9,7,25.5,16.5,36,22c10.5,5.5,7,8,2,16
			c-5,8-1,21.5,2,36c3,14.5,0,29.5,2,34c2,4.5,6.5,3.5,17,7c10.5,3.5,16,5.5,23,8c7,2.5,11,16.5,11,27s-8,19-8,19s-1,0-9,3
			c-8,3-17-1.5-27-4c-10-2.5-25.5-5.5-32-4c-6.5,1.5-4.5,10.5,1,37c5.5,26.5,27,64,27,64s-0.5,0.5,6,5c6.5,4.5,34.5,15.5,41,16
			c6.5,0.5,18-8,20-8c2,0,26.5,14,40,19s26.5,13.5,37,18c10.5,4.5,22.5,7,35,9c12.5,2,17,11,21,23c4,12,13,20,21,30
			c8,10,7.5,18.5,7,31c-0.5,12.5-7.5,22.5-9,36c-1.5,13.5-3,31,5,43c8,12,40.5,103,45,126c4.5,23,42,80,46,86c4,6-3,6.5,0,10
			c3,3.5,23.5,15,38,19c14.5,4,40,0,52,7c12,7,11.5,19,20,26c8.5,7,18,4,26,4c8,0,14.5,6.5,19,11c4.5,4.5,28.5,10,34,13s41,21,46,22
			c5,1,26.5,18,31,19c4.5,1,17-2,17-2s29,20,35,21c6,1,14-2,21-4c7-2,12.5-17,15-19c2.5-2,9-4,29-5c20-1,19.5-3,24-1
			c4.5,2,23,4.5,32,7c9,2.5,20.5,14.5,28,18c7.5,3.5,31.5,7.5,43,16c11.5,8.5,15.5,21.5,23,28c7.5,6.5,13,5,29,7c16,2,27,24,36,49
			c9,25,12,66.5,12,84c0,17.5,19.5,65.5,24,86c4.5,20.5,8,52,7,91c-1,39-0.5,0,2,15c2.5,15-13.5,44-20,60c-6.5,16,3,42,3,42
			s-5.5,6-11,9c-5.5,3,0.5,12.5,3,24c2.5,11.5,9,19,9,19s0,0,14,7c14,7,20,2,32-2c12-4,25-14.5,29-12c4,2.5,12.5,4.5,20,5
			c7.5,0.5,12-8,12-8s12,3,22,18c10,15,18,41,23,91c5,50,21.5,51.5,28,59c6.5,7.5,32,15,48,21c16,6,41,8,50,8c9,0,40-10.5,46-14
			c6-3.5,17-16,17-16s8.5,3.5,8,10s-8,13.5-15,19c-7,5.5-24,13-38,17c-14,4-37,14.5-48,23c-11,8.5-31,24.5-43,37
			c-12,12.5-7,43.5-2,64c5,20.5,45,79,48,79c3,0,18,3.5,24,6c6,2.5,7,11,7,11s-0.5-0.5,2,4c2.5,4.5,10,14.5,21,17
			c11,2.5,47.5,12.5,71,13c23.5,0.5,21.5-3,27-7c5.5-4,20.5-26,22-31c1.5-5,18.5-68,21-75c2.5-7,25-57.5,27-62c2-4.5-1.5-30.5,1-33
			c2.5-2.5,67-81.5,70-89c3-7.5,5.5-16,10-24c4.5-8,15-31,17-35c2-4-2-18.5,0-22c2-3.5,17.5-24.5,18-28c0.5-3.5,6.5-63,5-65
			c-1.5-2-25-35.5-31-44c-6-8.5-13-25-15-31c-2-6-26-36-26-36l3-21c0,0-13-24-13-27c0-3-1.5-22-4-27c-2.5-5-8-7-8-7l8-5l16-16l-3-7
			c0,0-9-1-23-1c-14,0-33.5-0.5-45-2c-11.5-1.5-25.5-3.5-37-3c-11.5,0.5-18-8-30-9c-12-1-18.5,5.5-42,8c-23.5,2.5-24.5-0.5-36,2
			c-11.5,2.5-14.5-8-21-13c-6.5-5-15-16-15-16l7-15c0,0,8.5,16.5,13,15s12-9,16-9c4,0,20,11,20,11s8.5-0.5,70-1
			c61.5-0.5,65.5-5.5,76-11s37.5-21,42-23s19-15,22-18c3-3,0.5-18.5,0-32c-0.5-13.5,1-26.5,0-48c-1-21.5-8.5-30.5-19-46
			s-15-26.5-21-38c-6-11.5-24.5-23.5-40-31c-15.5-7.5-19.5,0-25,1c-5.5,1-12.5-15-21-22c-8.5-7-15-7-30-5c-15,2-10,2.5-20,3
			c-10,0.5-15.5,5-21,8c-5.5,3-13.5,2.5-21,3c-7.5,0.5-20.5-5.5-31-6s-46.5-2-50,0c-3.5,2-16,8.5-21,8s-20.5-12.5-23-17
			c-2.5-4.5-8-7-13-8s-16-3-16-3s-1.5-7,1-7s16,3,16,3s29.5,10,34,10s26-19,26-19l50-2l33-35v-18c0,0,5-25.5,5-33c0-7.5-13-32-13-32
			l17-4l1-23l-26-141c0,0,1-1.5,15-11c14-9.5,27-16,60-26l-1-83C2552,1250,2549.5,1250.5,2549.5,1250.5z"/>
	</g>
</g>
<g id="Las_Venturas">
	<path fill="#CECECE" d="M6335.5,2382.5c6-46.5,4.5-72,0-103c-4.5-31-3.5-39.5-3-56c0.5-16.5,0.5-35-1-47c-1.5-12-1.5-54.5-2-105
		c-0.5-50.5,4-120,5-137c1-17-2.5-45.5-4-62c-1.5-16.5,0-44,1-63c1-19-0.5-44-1-56c-0.5-12,0.5-26.5,2-43c1.5-16.5-1.5-40.5-2-57
		c-0.5-16.5,3.5-62,4-68c0.5-6-0.5-70.5,0-77c0.5-6.5,0-80.5,0-88s1.5-56.5,2-68c0.5-11.5,0.5-85.5,0-88s-11.5-34-13-44
		c-1.5-10-1-14-1-14s13.5-31,14-44c0.5-13,1-45,0-61c-1-16-0.5-34,1-68s1-164.5,1-185c0-20.5,0.5-117,0-152c-0.5-35-18-80-18-80
		s4-10.5,6-19c2-8.5-0.5-53.5-3-64c-2.5-10.5-20.5-52.5-23-58c-2.5-5.5-27.5-52.5-31-58c-3.5-5.5-20-26-29-34c-9-8-17-13-22-15
		c-5-2-15,2-40,3c-25,1-14-1-25-1c-11,0-15,3.5-20,4c-5,0.5-20.5-8.5-29-10c-8.5-1.5-61.5-3-70-5c-8.5-2-39-2.5-49-3
		c-10-0.5-43.5-0.5-53,1c-9.5,1.5-46,5-65,5c-19,0-61.5,4.5-67,9s-28.5,13-50,14c-21.5,1-41-10-46-11c-5-1-19.5,4.5-36,8
		c-16.5,3.5-55.5,5-68,3c-12.5-2-28-15-44-16c-16-1-31.5,1.5-44-2c-12.5-3.5-31.5-10-47-11c-15.5-1-45.5,16.5-60,22s-36.5,1-53,2
		c-16.5,1-51-12.5-73-16c-22-3.5-32,2.5-54,3s-72-13.5-93-17c-21-3.5-50.5-2-70,1c-19.5,3-49-2.5-67-2c0,0-34.5,0-47,0
		c-12.5,0-47,4.5-52,3c-5-1.5-48-3-48-3s-0.5,0-9,1c-8.5,1-86.5,3.5-104,4c-17.5,0.5-95.5-0.5-110-2c-14.5-1.5-73.5,1-106,9
		c-32.5,8-43.5,7.5-46,9c-2.5,1.5-38.5-1-42-1c-3.5,0-8-7-8-7s-11.5,0-21,0s-33,0-37,0s-43.5-0.5-46,0c-2.5,0.5-33-2-45-2
		c-12,0-27,14-27,14l-4,9l-13,2292c2.5-2,80-46,80-46s28.5,24,36,27c7.5,3,37.5,14.5,47,17c9.5,2.5,53.5,7,64,8c10.5,1,53.5-2,71-1
		c17.5,1,21,2.5,26,4c5,1.5,20.5,1.5,31,2s64,22,67,23c3,1,14.5-1.5,21-2c6.5-0.5,24,4,24,4s11,11.5,16,12s41.5,2,50,4
		s45.5-10.5,48-11c2.5-0.5,41,1,47,1c6,0,75,9,75,9l1,13h37l-1,24l17-2l-1-22l24-1c0,0,11.5,5.5,14,6c2.5,0.5,107.5,16,110,15
		c2.5-1,73,11.5,82,14c9,2.5,80,19.5,87,18c7-1.5,72.5-10,105-16c32.5-6,123,9,129,11c6,2,51-1,51-1l1,6h48l1,25h8l-1,7l7-2l1-7v-23
		h45l-1,25l13,1v5l5,1v-7l7-1l1-23c0,0,24.5,1,41,1c16.5,0,66-11.5,79-10c13,1.5,63.5,3,72,0c8.5-3,35.5-24.5,43-27s61-4.5,72-5
		c11-0.5,52-4,61-4s64.5-7,91-14c26.5-7,104-92,115-112s20.5-60,24-78c3.5-18,1-48.5-1-57c-2-8.5-5.5-11-4-15
		C6318,2467.5,6329.5,2429,6335.5,2382.5z"/>
</g>
<g id="Bone_County">
	<path fill="#CECECE" d="M2810.5,1287.5c3.5-4,3.5-9,5-19c1.5-10-1.5-20.5-4-26c-2.5-5.5-6.5-18.5-5-30c1.5-11.5,12-21.5,17-26
		s25-17,25-17s10.5-13.5,12-16c1.5-2.5,0-13,0-13s-9-7.5-12-10c-3-2.5-3.5-27-9-44c-5.5-17-2.5-18.5-4-23c-1.5-4.5-6-14-6-14v-14
		l-16-17l-20-2l-18-14l-20-4c0,0-8,13-13,20c-5,7-25,22-31,25c-6,3-27,5.5-50,14c-23,8.5-36,17.5-47,24c-11,6.5-29,13.5-37,14
		c-8,0.5-9-1.5-14,0c-5,1.5-9,5-16,5c-7,0-15,2-15,2l4,2v3l-4,2v4l-4-1v-3l-4-3c0,0,0.5-2.5-6-3c-6.5-0.5-14-8-18-14
		c-4-6-8-10-21-11c-13-1-17.5-7-23-8c-5.5-1-3-14-5-20c-2-6,3.5-13.5,4-15c0.5-1.5,2.5-40.5,1-44c-1.5-3.5-4-5.5-4-16
		c0-10.5-1-16-3-22c-2-6-2-33-2-45s-4.5-21.5-4-30c0.5-8.5,12.5-16,16-21c3.5-5,9-20.5,17-33c8-12.5,13.5-16.5,17-22
		c3.5-5.5,1-10.5,2-16s-0.5-10,0-13c0.5-3-9-10-13-16c-4-6-19-18.5-22-22c-3-3.5-2-11.5-2-17c0-5.5-3.5-14.5-7-22
		c-3.5-7.5-9-15-14-18c-5-3-13.5,0-17,8c-3.5,8-11,9-18,9c-7,0-10.5-7.5-14-9c-3.5-1.5-5-13-7-17c-2-4-6.5-5.5-13-8
		c-6.5-2.5-11.5-11-18-14c-6.5-3-14.5-0.5-18-3c-3.5-2.5-33-38-33-38s-17,0-18-2c-1-2-6-15.5-8-19c-2-3.5-19-17.5-22-18
		c-3-0.5-3.5-15-4-19c-0.5-4-23.5-28.5-26-29c-2.5-0.5-45,0-45,0l-23-163c15-3,18.5-7,36-5c17.5,2,18,2,18,2s-2-4,15,1
		c17,5,24,10.5,39,10s28.5,1.5,37,1c8.5-0.5,13.5-4,19-6c5.5-2,14.5,0.5,20,0s10-2,17-4c7-2,16,7,21,6s13.5-6.5,21-7
		c7.5-0.5,23,7,32,9s16.5,5,20,3c3.5-2,10.5-5.5,21-6c10.5-0.5,17.5-1.5,25,1c7.5,2.5,19,5,25,6c6,1,8,5,8,5l4,5l4-8
		c0,0,6.5-3.5,11-5c4.5-1.5,17.5-2,24-1c6.5,1,11.5,3,21,1c9.5-2,14.5-3.5,26-8c11.5-4.5,13-2,28-3c15-1,35.5-0.5,43,4
		c7.5,4.5,11,9,19,10c8,1,12-5.5,14-8c2-2.5,7-7,13-8c6-1,12,0.5,15,4c3,3.5,7.5,10.5,14,10c6.5-0.5,12.5,4,23,1
		c10.5-3,10.5-7.5,21-7c10.5,0.5,16,2.5,27,1c11-1.5,12,0.5,25-4c13-4.5,20-6,31-3c11,3,15,8.5,25,6c10-2.5,11-2,26-7s18.5-5.5,28-4
		c9.5,1.5,16,4.5,30,6c14,1.5,15,5,30,2c15-3,24-7.5,32-6c8,1.5,15.5,4,20,8c4.5,4,11.5,7,16,6c4.5-1,6-6,12-9c6-3,11.5-2.5,17,1
		c5.5,3.5,5.5,3.5,13,10c7.5,6.5,9,14.5,18,15c9,0.5,24,7,38,6c14-1,31,0,38,2c7,2,19.5-0.5,26-3c6.5-2.5,21,0,30-5s19.5-12.5,24-11
		c4.5,1.5,23.5,14.5,36,13c12.5-1.5,20-4.5,30-10c10-5.5,18-15,45-13c27,2,46,14.5,50,15c4,0.5,14,3,27,1c13-2,19.5,0.5,31,1
		c11.5,0.5,16.5,2,30,8c13.5,6,19,15,25,17c6,2,5,3.5,14,3c9-0.5,13-3.5,20-7c7-3.5,10-9,18-12c8-3,18.5-0.5,26,1
		c7.5,1.5,22.5,3.5,31,6c8.5,2.5,16.5,4,27,10c10.5,6,13.5,11,22,12c8.5,1,48,1,48,1s19.5,6,23,6c3.5,0,22-2.5,30-3
		c8-0.5,41-9,68-23c27-14,59.5-17,75-16c15.5,1,40.5,2.5,51,2c10.5-0.5,47,1,47,1s15.5-14,19-16c3.5-2,15.5,3.5,31,3
		c15.5-0.5,46-4.5,53-5c7-0.5,29,5,31,6s7,11,7,11l-13,2292c-2.5,2-27,8-33,7c-6-1-8.5-3-15-1c-6.5,2-19,11-19,11s6,11.5,6,15
		c0,3.5-4.5,17.5-8,20c-3.5,2.5-45.5-8-50-9s-40.5-8.5-46-9c-5.5-0.5-49-13-65-13s-41-3-70,11c-29,14-53,26-69,26
		c-16,0-30.5-3.5-39-7c-8.5-3.5-21-1-33,6c-12,7-27,12-36,12s-15.5,4-24,2c-8.5-2-27-8-44-10c-17-2-46.5-3-54-6c-7.5-3-28,3-36,4
		c-8,1-24-9.5-29-13c-5-3.5-14-23-21-27c-7-4-40-8-48-1c-8,7-6.5,28-4,46c2.5,18,8,33.5-6,44c-14,10.5-37,20.5-46,22
		c-9,1.5-37,30.5-50,32c-13,1.5-38.5-0.5-41-1c-2.5-0.5-50,22-70,25c-20,3-56.5,6.5-66,5c-9.5-1.5-27.5-3.5-30-4c-2.5-0.5,0-5,0-5
		s-51.5,3.5-60,0c-8.5-3.5-51-32-51-32s-39-0.5-57,2c-18,2.5-72.5,3-86-5c-13.5-8-55-43.5-60-47c-5-3.5-10.5-35.5-11-43
		c-0.5-7.5,3.5-19.5,2-23c-1.5-3.5-25.5-20-28-22c-2.5-2-20-26.5-20-38c0-11.5,3-52.5,5-59c2-6.5,15-41.5,16-45
		c1-3.5,26.5-20.5,36-24c9.5-3.5,32.5-6.5,36-11c3.5-4.5,9-21,6-28c-3-7-22.5-17.5-22-31c0.5-13.5,10.5-34.5,17-47
		c6.5-12.5,3-25.5,3-45c0-19.5,9.5-34,13-36c3.5-2,7-37.5,6-64c-1-26.5,5-34,5-34s-8.5-12.5-8-19c0.5-6.5,13-19,13-19l-3-10l-5-1
		l-3-5l6-1c0,0,1.5-13-3-33c-4.5-20-9-41-9-41s-32.5,0.5-38-8c-5.5-8.5-4-25-4-25s-19-36-21-39c-2-3,1-47.5,4-53c3-5.5,10-26,10-26
		s-3-12-2-16c1-4,8-14,8-14s-6.5-22-5-26c1.5-4-19-23-19-23s4-21.5,8-36c4-14.5-0.5-40.5-5-47c-4.5-6.5-5-16-5-16s-25.5-28-27-36
		c-1.5-8-1-38,1-45c2-7,6-21,5-25c-1-4-14.5-18-22-20c-7.5-2-29.5,9.5-34,6c-4.5-3.5-16-8.5-18-13c-2-4.5-3-17-5-26
		c-2-9,6.5-0.5-2-9c-8.5-8.5-21.5-14-24-22c-2.5-8,5.5-23,8-33c2.5-10,5-16,5-16l-24-8v-21l35-142c0,0-33-21-54-26c-21-5-61-12-94-2
		l-1-83c18.5-4.5,33.5-3,49-3c15.5,0,36,2,36,2l3-7c0,0-0.5-5.5,1-9c1.5-3.5,6-4,6-4l-1-24c0,0,0-0.5-2-1c-2-0.5-4-4-5-9
		c-1-5,1-7.5,7-10c6-2.5,9.5,2,13,5c3.5,3-0.5,7-1,9c-0.5,2-6,5-6,5l-1,25c0,0,0.5-0.5,4,2c3.5,2.5,4,7,3,11c-1,4-5,3-5,3l-8,2l-1,4
		c0,0,18.5,6,28,8L2810.5,1287.5z"/>
</g>
<g id="Los_Santos">
	<path fill="#CECECE" d="M6298.2,4834.6v-3l-1-3c0,0,3.3-11.3,3-25s-2.8-35.8-4-42s-3.5-27.3-5-39s-6-34.3-7-49s-6.5-39.3-10-57
		s-9-40-10-49s-3-19.8-5-33s-2.5-44.3-3-58s1-15.8,5-26s4.3-29.8,4-38s0.3-94,1-100s2.3-47.5,2-64s-0.8-63.3-1-67s-3.5-17-3-26
		l-2807,126c-11.3,8.8-25.8,45.8-32,59s-8.3,33.8-8,36s-1.8,10-3,19s4,15,4,15s-0.3,11.3-1,20s3,32,3,32l34,8l17,31c0,0,6,10.8,4,15
		s-32,38.5-49,59s-18.5,33-19,38s18,29,18,29s-5.8,3.8-10,10s-1,28.5-2,38s-2.3,36.8-3,48s2,23,3,42s2.8,31.5,1,50s-6.8,26.8-10,37
		s3.5,42,9,50s14.3,28.8,12,38s-3.8,26.3-5,37s-2.3,9.5,2,14s9.5,19,8,27s2.3,28.3,2,36s0.3,16.5,6,24s5.3,9.8,7,20s13.3,19.5,18,24
		s9.8,10.3,14,23s2,57,2,57v69l-9,13l1,6l11,17h26l10-19l-1-5l-11-16v-40c0,0,10,1.5,18,4s17.8,1.8,29,1s17.8-2.3,27-4
		s11.3-0.3,19,2s15.3,4.3,26,7s28.5,6,39,6s26.8-5.3,37-5c9.5,0.2,35.5,5.1,39.5,5.9c-0.3-0.2,0.5,0.1,0.5,0.1s-0.2,0-0.5-0.1
		c0.2,0.1,0.8,0.4,2.5,1.1c4.3,1.8,29.3,0,38,0s28.8,2.3,34,2s10.8-3,19-2s31.3,6.8,42,8s16.5,1.5,20,0s8-3,8-3s6.8,2.8,13,4
		s34,2.5,53,4s56,1,64,0s16-5,16-5l1,7h1c0,0,0.8-1,0-12s1-74.3,2-90s-3-81-3-81v-39h3v4h4v-18h-4v9l-3-1v-34v-26h3v5h4v-17l-4-1v7
		h-3c0,0,0.3-1.5,0-9s0-48,0-48s1.3-19,3-25s1-25.5-1-31s-1.5-5-3-11s2-13,4-15s5-1,5-1l1,7l6-1l-1-6c0,0,5.8,0.5,11,1s7.8-0.8,12,8
		s-3.8,16.3-7,24s-2.8,25-2,35s0,47.3,0,55s0,69,0,69s4,44.8,2,68s-5,70-5,70v39l1,52h1l1-11c0,0,8.3-0.5,16-3s12-11.3,14-10
		s3,3,3,3s8,2.5,15,3s25.8,4.3,29,5s38,0,38,0s16.3,0.8,28,2s23,7,23,7s15.3-5,27-5s17,5,17,5s0.5,0.8,4,15s17,45,17,45l1,17l-4,48
		c0,0-3.3,47.5-6,64s-6,36-6,36s-4.5,9.8-5,26s17.8,37.3,26,46s27,53,27,53s-7.3,15-9,32s15.8,40.8,17,43s26.3,21.8,33,26
		s45,34,45,34s44.8,31.5,64,51s49.5,33.8,54,37s32,12,32,12s2.8-0.8,3,2s11,34,11,34s2,27.8,5,77s15.5,59.5,25,81s7.8,18,42,45
		s100,40,100,40h500h160c0,0,1.8-1.5,29-8s49-19.8,64-28s31-31,31-31h67v-77h4l-1-12h-2v-98v-41h3v-13h-4v-42l12,10l39-39l-2-2
		l-10-10l34-34l95-95h40v14h56v-15h225l-1-10c0,0,0-1.3,4,1s27.8,7.8,33,6s50.8-24.5,60-32s36.3-48.3,41-62s10-45,10-45l5-53h27v-8
		h-27c0,0-0.3-36.3-1-48c-0.8-11.8-4.3-66.8-6-84s-3-26-3-26l1-9l3,1v-2h11v1h9v-6l-8-1l-1,2h-9l-1-2h-7c0,0,0-1.3,0-3
		s-9-19.8-13-24s-6.3-5.5-11-25s-2.5-30.5-1-45s6-42,6-42l18-68l19-59l20-70l10-47h6v-2l3-1v-3L6298.2,4834.6z M4618.2,5733.6
		c-0.8,6.3-2.8,17.8-9,20s-12.8,5.5-17,6s-20,1-20,1s-18-9.5-21-12s-7.3-6.5-8-10s-1-19,1-22s12.5-10.5,16-12s4-2,4-2h26
		c0,0,15.5,2,20,8S4619,5727.4,4618.2,5733.6z M5340.2,4560.6c-8.3,4.8-18,9.8-34,8s-29.5-8-32-11s-4-10.3,0-14s18-10,18-10
		s29.5-3.5,39,0s19.3,12,19,15S5348.5,4555.9,5340.2,4560.6z M6072.2,5680.6h78v236h-35v15h-55v-15h-54v-52v-54h-23v14h-55v-14h-25
		v110h-38v127h-42v15h-56v-15h-53v-145h-16v-56h16v-31l57-57l79-79l76-3l37-2v6h51v-16h58V5680.6z M6279.2,5224.6v7l8-1l2-1h11v2h7
		v-7h-7v2l-12-1l-1-1H6279.2z"/>
</g>
<g id="Red_County">
	<path fill="#CECECE" d="M3223.2,3847.6c-4-8-28.5-33.5-32-37s-1-3-1-3l-2-32c0,0-20-27.5-31-29s-18-0.5-26-3s-27-24-31-31
		s-14.5-23-28-31s-64-40-64-40s-30.5-15-38-15s-29,6.5-35,9s-32,15-47,15s-46-8.5-57-16s-39-17.5-58-19s-20-3.5-29-1s-8.5,2-26,1
		s-41-1-61,2s-40,6.5-48,7s-21-4-48-2s-52,7.5-67,11s-31,6.5-48,5s-31.5-10.5-35-19s-12-16-12-16l-22-4c0,0-14.5,3.5-20,1
		s-9-15-9-15s-6.5-12-9-27s-14-55.5-14-67s6-23.5,22-33s33-13,37-15s19,1,24-54s5.5-69,14-88s37-64,45-78s52-82.5,57-89s11.5-8,16-6
		s10.5,1,19-8s55-41,88-59s33-18,33-18s5.5-3.5,64-10s77.5-9,141-5s64,4,64,4s24,4.5,58,6s37-4,50,0s54.5,14.5,63,16s53,16,73,20
		s40.5,4.5,45,8s5,4,5,4s16,11.5,28,17s40,23,63,38s56,36,56,36s40.5,7.5,54,9s40.5-1,54-2s33.5-4.5,42-6s37.5,5,42,5s20-4,28-6
		s22-9,33-13s45.5-31.5,55-38s50.5-41.5,69-62s58-73,58-73l48-31c0,0,9.5,2,17,1s17.5-12,41-18s31-6,48-3s29.5,1,47-5s27-7.5,43-6
		c16,1.5,16,2,16,2c0.7-0.2,4-1.3,18-6c21-7,21-7,21-7s12.5-3,31-4s21,6.5,50-8s30.5-8.5,46-19s28-17,35-36s7-19,7-19l5-19
		c0,0,17-9,25-14s10.5-13,14-17s27.5-16.5,37-20s44.5-19,53-21s24.5-6.5,38-3s32.5,17,42,17s32,9.5,41,12s40,8.5,47,11s31,7,42,15
		s28,24.5,38,27s37.5,0,50,4s20.5,14,30,16s27.5-4,39-3s24,6,31,13s15.5,26,22,30s27.5,15.5,40,18s23.5-0.5,34,2s9.5,4.5,20,3
		s21-4,32-9s40-2,49,0s46.5,3,61,2s39.5-0.5,62,1s59,9,68,13s41.5,7,60,5s54-11.5,60-14s29-6,29-6s83,35,95,52s-0.5,0.5,2,7
		s5,16,5,16s18.5,31,21,36s14.5,34,15,38s-6,11.5-6,17s0,29.5-5,43s-7.5,10.5-17,33s-15.5,37-18,58s-3.5,33-13,48s-14,15.5-16,32
		s-1.5,27-9,42s-17.5,37.5-24,46s-42,14-42,14s-25.5-7-34-9s-33-4-36-3s-22,9-27,11s-15.5,1.5-25-1s-19.5-9.5-25-16s-24.5-11-43-14
		s-40.5-13.5-55-13s-36,7.5-51,8s-39-1-51-4s-21.5-12-31-10s-18-1-31,16s-20,30.5-20,51s-0.5,47-4,60s-11.5,35.5-21,44s-25,26-28,32
		s-26,19.5-38,25s-37,18.5-41,20s-31,6.5-43,6s-20.5-6-28-10s-26.5-3.5-33-5s-21.5-8.5-27-13s-12-3.5-27-16s-28-24-36-29
		s-35.5-30.5-39-35s-9-9-16-11s-24.5-20-29-23s-25-14-30-16s-20.5-11-34-7s-34,11.5-38,12s-24-2-41,2s-29,5.5-29,11s0,8.5,0,12
		s-26,5.5-34,5s-6-4-15-6s-35-4.5-45-6s-26-8-26-8s-86.5,37-90,38s-11.5,10.5-16,14s-25,23.5-42,35s-26,25-45,25s-23.5-1-37-4
		s-47.5-3-59-1s-42.5,8.5-48,10s-25,24.5-47,23s-30-2.5-39,0s-14,14.5-23,16s-21,7.5-33,16s-38,26.5-45,33s-12.5,7-22,9s-29,4-38,14
		s-34,38-34,38s-16.5,12-26,18s-14,13-36,14s-30.5-2-44,1s-43.5,8-53,12s-22.5,22.5-31,35s-29,34-31,43s-2.5,16-19,33s-25,23-25,23
		s-21.5,14.5-31,22s-20,13-20,13s-5.5,3.5-12,1s-29-25.5-35-38S3227.2,3855.6,3223.2,3847.6z M6262.2,4057.6c-1-18.8,0.8-53.8,1-68
		s-1-44.5-1-62s-1.5-50.5-2-60s-1.5-36.3-3-43s-11-20.5-18-28s-23.8-34.5-29-47s-8.5-36.3-10-55s0.8-20.8,1-32s-0.3-26.8,0-45
		s0.5-26.8,1-30s8-30,12-43s3.5-12.5,3-20s-1.3-11,1-15s3.3-8.3,1-16s-1.5-10.8-3-16s2.5-8.5,8-13s3.5-10.5,4-21s3.5-4.5,10-13
		s5.8-13.3,6-23s-1.8-23.3-4-40s1.5-35,4-40s1.8-30.8,1-42s-1.3-8.5-5-15s-0.5-12.8-12-34s-9.3-19.3-13-39s0.5-21.8-6-29
		s-19-24.3-31-41s-19.5-25.3-26-38s-5.3-34-9-40s-19.5-24-26-30s-13.3-3.5-18-5s-10-3.8-16-8s-7.3-11.3-19-16s-31-10-31-10
		s-2-0.5-20,2s-46.3,0.3-67-4s-79.3-19-93-23s-33.8-16.8-41-21s-11.8-7.3-20-9s-22-2-22-2s-11.8-3.5-27-4s-27.5-0.5-34-3s-19-1-35,0
		s-24-4-48,0s-31-1-39,7s-16,30-18,41s-8,66-8,66s-2.5,37.5-4,46s-11,31.8-14,40s-11,29.8-12,34s-17,27-18,32s-26.5,33.5-31,39
		s-16.5,15.3-17,21s3.5,20,2,28s-6,29.8-6,34s1,35.8,3,42s1.3,27.3-4,45s-2,41-2,41s9.5,6.5,22,19s28,17,28,17s0,0.3,11,2
		s31.5,6.3,39,7s29,16.3,34,20s6.8,12.5,7,20s1,11.3,6,17s9.5,27,11,35s-5.8,12-9,17s-8.3,4.8-19,2s-29.5-4.5-44-7s-77.8-5.8-103-6
		s-38,3.5-53,3s-32.8,6.3-40,10s-31,11.5-46,13s-17.3-1.8-29-8s-23-22.8-32-33s-10.5-29.5-11-41s-1.8-16,2-24s7-26.8,7-38
		s-6-18.3-14-28s-15.5-7.8-26-13s-22-7.5-30-8s-16.8-10.5-26-16s-22.8-10.5-35-14s-16.8-0.3-29-7s-25.3-9-32-9s-27.8-0.5-40-1
		s-27.8,3.5-33,7s-14.5,19.3-17,25s4.3,31.5,6,41s5.3,49.5,0,65s-28,25-35,30s-34.8,28.3-40,32s-37,28.8-43,32s-23.8,12.5-33,15
		s-22.3,9-29,10s-10-3.5-18-6s-21.3-0.5-27,1s-19.8,8.5-24,14s-8.5,14-18,17s-24-1-33-5s-17.3-9.5-22-16s-11.3-24.5-13-33
		s-23.3-50.5-29-58s-9.8-14-15-17s-10.5-5.3-16-11s-16.3-18-23-24s-15-14.5-20-19s-14.3-6-26-4s-23.3,2.3-34,2s-25-0.5-34,1
		s-25.8,8.3-38,9s-27-1.5-40-4s-18.8-1.3-53-1s-26.5,0.3-41,4s-37,4.3-60,7s-9.8,2.5-20,5s-8.5,7.5-15,11s-25.3,21-34,28
		s-25.3,17.3-36,23s-36.8,28.8-48,33s-25.8,3.8-34,4s-11.5-3.3-25-5s-27,1.3-40,6s-44,12-44,12s-39.3,0-44,0s-30,6-30,6
		s-18,0.5-25,2s-18,13-18,13s-16.3,11-20,11s-14.8-0.8-16,0s-9.3,2.5-15,3s-13.5,8.3-19,15s-18.3,14.3-29,19s-25.8,16.3-37,28
		s-35.5,39.3-43,46s-17.8,19.3-25,23s-26.5,8-39,12s-39.5,6-55,8s-30,10.3-35,14s-25.8,29-29,35s-19.8,38.8-27,46s-25.3,30.8-32,38
		s-30.3,27.5-43,47s-13.5,19.5-21,22s-28.5,6.8-31,8s-16.8,16.3-19,20s-2,27-2,27s-6,7.3-12,16s-24.3,47.2-30,60s-15.5,38.8-12,47
		s27.5,33,33,42s38.5,30.8,41,32s18.5,1,26,0s34.8-10.5,47-11s30.3,3.5,37,4s24-3.3,31-4s27-1.8,35-1s19,6,25,12s-2.8,25.3-14,34
		l2807-126C6263.7,4131.6,6263.2,4076.4,6262.2,4057.6z"/>
</g>
<g id="Flint_County">
	<path fill="#CECECE" d="M3411,5968c-3.3-5.7-4-10.7-5-19c-1-8.3-2.3-14.7-8-27c-5.7-12.3-12.3-20.7-16-30c-3.7-9.3-13-31-16-35
		s2-20.7,3-27c1-6.3-20.3-27-28-34s-36.3-31.7-42-36c-5.7-4.3-24.3-16.3-30-19c-5.7-2.7-12-6-12-6s-25-24.7-29-27
		c-4-2.3-19-23.3-24-29c-5-5.7-13.7-12.3-15-15c-1.3-2.7-4-34.7-4-42c0-7.3-0.7-25.3-7-39c-6.3-13.7-14-20.3-19-25
		c-5-4.7-15.3-19.3-20-42c-4.7-22.7-13-35.7-14-47c-1-11.3,5.7-32,6-48s0-19,0-19s-15.3-22-17-23s0-43,0-43s-20.3-32.3-21-39
		c-0.7-6.7-5.3-14.7-3-21c2.3-6.3,1.7-14-1-23s-3-16-3-16s-5.3-4-12-7s-19-9-22-12s-9.3-13-13-16s-6.7-3.7-13-4
		c-6.3-0.3-12.3,1.3-20,1c-7.7-0.3-29.3-0.3-46,2c-16.7,2.3-36.7,10-44,14s-27,14-27,14s-1.3-3.3-1-6c0.3-2.7-3-5-3-5
		s17.7-6.3,22-10c4.3-3.7,22.7-18.7,28-22c5.3-3.3,20.7-4.3,29-5c8.3-0.7,21.7-1.3,29-1c7.3,0.3,15.7,4.3,19,7c3.3,2.7,10.3,6,18,6
		s13.7,0.3,18,5c4.3,4.7,8.3,10,14,11s9.7,5.7,13,0c3.3-5.7,10.7-13,11-18s-2-18,0-22s10.3-4.7,14-9c3.7-4.3,10-7.7,8-24
		c-2-16.3-5.7-17.7-2-24c3.7-6.3,6.3-30,6-39s4-28,4-28s8.7,3,13,0s6.7-4,5-8s-3.7-11-2-14s5-1.7,7-4c2-2.3-6-12-6-12s9.7-8.7,20-12
		c10.3-3.3,26.7,1,32,1s20.7-2.7,30-3c9.3-0.3,9.7,0.3,11-3c1.3-3.3,4-7,4-7s19.7,3.7,26,1c6.3-2.7,22.3-7.7,30-14
		c7.7-6.3,11-10.7,13-15c2-4.3,6-6.3,10-9c4-2.7,18-32.7,21-35c3-2.3,5,0,8-5s8.7-12.3,11-13c2.3-0.7,11.3,0.7,15,3
		c3.7,2.3,6.3,4.3,11,2c4.7-2.3,6-13,6-13s-1.3-23.3-1-32c0.3-8.7,3-16.3,3-19c0-2.7-6.7-15.7-9-27c-2.3-11.3-10.7-47-16-56
		s-9.3-21.3-10-25c-0.7-3.7,5.7-7.7,4-14c-1.7-6.3-5-34.7-2-41c3-6.3,4-24,3-30s-4-7-4-7s2.3-0.7,1-8c-1.3-7.3-4-7-4-7s5-20.7,9-30
		c4-9.3,21-21.3,27-30c6-8.7,26.7-25.3,30-31c3.3-5.7,11.7-20.7-1-30c-12.7-9.3-29.7-19.7-38-25c-8.3-5.3-15.7-15.7-16-21
		c-0.3-5.3,4.3-18.7,10-32c5.7-13.3,12.7-26.7,20-33c7.3-6.3,9-9,9-9s-1-25,1-35s3.3-14,1-22s-4.7-16.3-5-29c-0.2-9-0.1-10.8-0.1-11
		c-1.2-0.6-21.5-10-27.9-11c-6.7-1-32.7-0.3-45,0c-12.3,0.3-38.7,0-53-1s-44-16-44-16s-28-31.3-32-41c-4-9.7-29.7-47.7-48-62
		c-18.3-14.3-57.3-38-64-40s-34-23.7-43-35s-18.3-36.7-27-46s-30-28-30-28l-18-41c0,0,11.7-25.3,13-30s-1-49-1-49l10-8
		c0,0-1.3-41.3,10-59s25-35,25-35s9.7-29,6-47s-8-21-8-21s1-0.3-20-1s-29-1-29-1l-29-15c0,0-30,2-36,4s-50-8-50-8s5.3-3.3-9-1
		s-27,9-39,5s-16-9.7-33-9s-37.7,6.3-52,11s-36.7,17.7-58,17s-25.7-5.3-50-4s-89.7,1.3-111,2s-108,4-108,4s-12.3,12-17,15
		s-20,12.3-24,15s-9.3,2-16,3s-27,14.7-45,21s-50,20-50,20l-23,22c0,0-5,24-8,29s-29,32-33,36s-7.5,6.5-8,10s0,20.5-3,27
		s-11,19-13,25s-4,27.5-4,33s-0.5,12.5-4,18s-9.5,11.5-11,28s-3,25-3,25s-45,20.5-62,29s-22,13.5-26,21c-4,7.5-9.5,15-19,21
		s-13,10-16,10s-29,3.5-41,3s-21.5-1.5-28-4s-14.5-3.5-21-2s-9.5,4-18,5s-20,1-24,1s-29,15-29,15s-14.5-23.5-19-28s-4.5-12-10-13
		s-26.5-3-31-3s-16,1-16,1s-6.5,11.5-14,11c-4.4-0.3-13.8-1.6-21-2.6l-289.5,656.3c3.9,3.1,8.3,6.5,13.5,10.4
		c21.7,16.3,44.3,29,57,42s18.7,21.7,26,24c7.3,2.3,19,5.7,34,11c15,5.3,20.3,5.7,25,11c4.7,5.3,10,13.7,17,21c7,7.3,12,10.7,25,17
		c13,6.3,17,12,23,12s9-2.7,13,2c4,4.7,6.3,10.3,13,16c6.7,5.7,10.7,9,19,10s6.3,2,9,5s2.3,14,15,21s17.7,4,19,12s2.3,15,4,21
		s2.3,9.7,26,6c23.7-3.7,41.7-13.3,57-13c15.3,0.3,32,7.3,40,12c8,4.7,17,8.7,28,7c11-1.7,16.7-2.7,22,0c5.3,2.7,7,7,12,8
		s7.7,0.7,13,7c5.3,6.3,15,14,28,25s34.7,21,45,30s10,12.7,12,25c2,12.3,2,16,10,24c8,8,13,11.7,14,16c1,4.3,8.7,7,16,17
		s6.7,23,11,34s2,15.3,6,20c4,4.7,10,14.7,20,23c10,8.3,24.3,20.3,40,30c15.7,9.7,24,14.3,26,21c2,6.7,2.7,12.3,8,29
		c5.3,16.7,10,26,13,29s5.3,5.3,8,13c2.7,7.7,8,24,8,24l1,94c0,0-2,17-5,22s-4,23-5,28s-6,23-11,26s-11.3,9-13,16s-5.3,22-6,28
		s-1.7,11.3-6,17c-4.3,5.7-13.7,21.3-17,26c-3.3,4.7-8,6.7-13,10c-5,3.3-7.3,11.7-9,18c-1.7,6.3-6.7,18-11,24s-5,12-4,19s1,50,1,50
		s-0.3,19.3,1,23c1.3,3.7,3,6,3,6s2,9,0,17s-3,18.7-1,23c2,4.3,7,21.7,7,29c0,7.3,2.7,23,9,35s10.7,19,17,32s5.7,12.7,10,22
		c4.3,9.3,7.3,10.7,12,14c4.7,3.3,9,10,11,21s5,20,10,28s7,16.3,12,20c5,3.7,7.3,3.3,9,9c1.7,5.7,0.3,7.7,7,16c6.7,8.3,7.3,8.3,9,18
		c1.7,9.7,4,16,8,22s4.7,16.3,6,29c1.3,12.7,4.3,21.7,16,32c11.7,10.3,30.7,21,35,23s3,23.3,9,30c6,6.7,16.3,7.7,22,12
		c5.7,4.3,6,10.3,14,12c8,1.7,13.3,3,22,5s17,7.3,27,8c10,0.7,14-0.7,24-1c10-0.3,19.3-1.3,26-10c6.7-8.7,5.7-9.3,9-10
		c3.3-0.7,20.7-2.7,25-6c4.3-3.3,12,0.7,19-2c7-2.7,11-3.7,14-6c3-2.3,1.7-3,4-9s8.3-5.3,14-12c5.7-6.7,8-3.7,15-4
		c7-0.3,26.3-1.3,36-10c9.7-8.7,11.7-13,12-14s11-2,12-2s5.7,7.3,12,7c6.3-0.3,21.3-0.7,32-3c10.7-2.3,22.3-8.3,24-9
		c1.7-0.7,25.7,0.7,34,2c8.3,1.3,17,1.7,27,3c10,1.3,32,1.7,41,0c9-1.7,12-1,12-1s13.7,20.3,17,23c3.3,2.7,16.7,3.3,23,5
		c6.3,1.7,20.3,1,24,3s9,9.7,13,11c4,1.3,12.3-3,17-7s7.7-6.3,14-6c6.3,0.3,19.7,4.7,25,7c5.3,2.3,15,8.3,25,8c10-0.3,14.7,3.7,22,4
		c7.3,0.3,12-2.3,16-4c4-1.7,12.3,0.3,19,5c6.7,4.7,14.3,11.3,21,16c6.7,4.7,9.3,5,15,7s11,7.7,19,8c8,0.3,10.3,2,21,0
		s11.3-3.7,18-4c6.7-0.3,7.3,1.3,15,6c7.7,4.7,5,1.3,21,10c16,8.7,22.7,13.7,32,14c9.3,0.3,6.3-1.3,18-2c11.7-0.7,11,2.3,24,3
		c13,0.7,11,1.3,33-9c22-10.3,38.7-22.3,50-31c11.3-8.7,21-13.3,22-21c1-7.7,0.3-15.3,7-24c6.7-8.7,9-14.3,23-19
		c14-4.7,25.3-14.7,34-28c8.7-13.3,10-16,9-27s5-8.3,9-16c4-7.7,8-9.7,8-25c0-15.3-2-33.3-1-41c1-7.7,10-24.7,9-41
		C3411,5970.7,3414.3,5973.7,3411,5968z"/>
</g>
<g id="SF">
	<g>
		<path fill="#CECECE" d="M3381.5,4268.5C3381.5,4268.5,3381.5,4268.5,3381.5,4268.5C3381.5,4268.4,3381.5,4268.5,3381.5,4268.5z
			 M1723.5,4093.9L1434,4750.1c-12.4-9.8-19.4-16.3-28.5-25.6c-12-12.3-27.3-30.7-35-39c-7.7-8.3-38-39-46-50s-38.3-55.7-45-69
			c-6.7-13.3-31-53-39-69s-12.7-21.7-19-33c-6.3-11.3-40-53.7-50-68c-10-14.3-31.3-35-44-44s-30.7-22.3-35-26
			c-4.3-3.7-10.7-28.7-13-35c-2.3-6.3-22.3-20.3-31-28c-8.7-7.7-62.7-43-68-44s-18,0-18,0s-6.5-3-41-24s-40-20-64-25s-30-2.5-34-3
			s-6-3.5-14-4s-26.5-1.5-36-2s-32-10-32-10s-41,9-71,18s-37.5,7-51,18s-33.5,33-42,44s-26.5,19.5-36,22s-64,3-75,1s-19-6-19-6
			s-7-3-17-5s-14.5-3-23-9s-25.5-21-33-28s-22-19-26-31s-2.5-13.5-2-76c0.5-62.5,2.5-71,8-82s14-23,16-34s-3-55.5-4-93s-3-56.5-6-75
			s-2.5-47,1-66s15-49,15-49s0-3.5-1-22s2.5-39.5,5-49s3.5-37,4-51s-1.5-32-3-47s1-67.5,2-91s1.5-65,1-84s0-75.5,0-96s6.5-56.5,8-67
			s-2.5-19-4-32s1-41,2-65s1.5-79-2-100s-18-37.5-23-54s-9-68-9-68h-23v-33h18l1-21h5v21h23v-22l5,1v21h14l1-24l37,1c0,0-2-1-4-6
			s-2-12-3-31s-9-17.5-17-23s-12-11.5-33-43s-16-55-18-97s0.5-63.5,2-111s1.5-63.5,7-76s4-28.5,4-35s3.5,2.5-12-40s-12-90-12-90
			s-0.5-108,1-123s10.5-26,23-32s17-1.5,26-5s21-18,21-18l-1-3l9-9h35l17-16v-44l17-16c0,0,57.5-1,80-2s16-18,16-18s1-84,1-91
			s2.5-42.5,5-52s10.5-13.5,22-15s23.5-0.5,39,0s15,0.5,24,8s5.5,4,9,17s14,13.5,24,16s16.5,7.5,19,17s4,29,10,33s11.5,1.5,19,2
			s178.5-0.5,204,1s40.5,8,55,17s33.5,26,42,27s144.5,1,152,1s14-2,14-2l2-67l33-1l1,103l44-1v-58h94l-1-4l35,1v3l13-1v-13l-90-88
			l19-18l82,82l14,1v13l6-1v-129h24v128h20v-127h24l1,128l25,1v-130l23,1l1,118l-1,11l4,1l21,21c0,0,42.5-40.5,51-40s19,1,19,1
			s17,15.5,16,18s1,13,1,13l3,14c0,0-1.5,1.5-7,7s-38,40-38,40v15l7,7c0,0,0-2-1-6s-0.5-6,3-10s8-8,13-13s5-7.5,16-8s12.5-1,19,2
			s5,6,9,7s6.5,2.5,18,4s11-1,16,0s8,3,11,4s8-1,7,3s-4,6.5-7,9s-9,4-14,6s-13.5-3.5-18-6s-20-5-20-5s10,9.5,10,16s-8.5,11.5-15,14
			s-14-1.5-16,2s-6,4-6,4l3,4l111-1v-3h16v3h3v26l-48-1l-1,3h-34l-1-3h-11l-1,34l82,1l1,25l25-1l-2,24l-24,1l1,11l56,19v24l-59,12
			v36l14-2v-3l36,1l-1,4h12v11l-61,2l1,53l17-1v-3h37l1,3l33,2l-1,175l-16,17l-47-1l1,112h3v30l-4-1l-1,23l-47,1l1,75l13,19l-1,84
			h38v-3h36v3h123l1-3h33l1,4h54l13,13v30l-8,4l-107,2v12l7,3v16l-6,3v14l6,3v15l-6,4l-1,14l7,3l-1,41l-14,14h-65l-2,2l-35-1v30
			l-180,1v2l-35,1l-1-4h-75l-18,36h24v-4l12-1v4l3,1v91l32,33l51-52l-2-2l8-9l2,1l18-15l10,10l-4,5l23,23l4-3l10,6l35-34l25,23
			l-155,155l15,15l-4,4l16,13l3-3l12,15l-134,134h-6v4l-10,1v-6l-6,1v128l1,105l-1,146l34-1l1-116h-4l-1-12l6-1c0,0,1.5-97.5,0-136
			s1.5-57.5,7-83s37-60,37-60l71-70l-2-3l8-8l2,3l167-167l-2-3l7-6l2,2l272-272l-3-3l8-8l4,2l118-117l41,40l-116,117l3,3l-7,7l-4-3
			l-105,106l44,44l-59,59l58,58l3-3l7,7l-2,3l24,25l-59,58c0,0,33,34,46,49s39,48,52,68s31,62,31,62l6-2l4,9l-5,3l1,4l-58,24
			c0,0,4,11,7,21s8,33.5,10,63s-4,78-4,78l-17,47l-16,23l4,3l-4,7l-5-3c0.1,0.1,0.4,1.2-10,14c-11.5,14-58,55-58,55v144h-132v5h-10
			v-6h-232v5h-8l-1-5l-14-1l-104-75c0,0-1,23,0,30s-1.5,15,1,18s1.5,10.5,0,16s-5,8-5,8l12,13c0,0,1.5-2.5,6-6s17-6.5,27-6
			s18,10,18,10l4,31l16,16c0,0,7,1,10,2s18,12,18,12h5C1714.5,4092.5,1718.4,4093.1,1723.5,4093.9z M530.5,2153.5
			c-2-2.3-2.3-6.3-6-5c0,0-14,4.7-16,12s-1.3,16,1,17s0,42,0,42s-7.7-0.3-10,5s-8.3,21.3-5,35s8,24.3,12,27s10.7,4.3,13,3
			s8-22.3,9-31s1.3-27.7-3-33s-11-6-11-6l-1-37c0,0,3.7,0.3,11-1s9-3.3,10-9S532.5,2155.8,530.5,2153.5z M637.5,3796.5
			c0-9-5.7-34-7-35s-2.3-4.3-5-3c0,0-12.3,6-22,18s-22,20.3-22,26s10,14,17,18s13,7.3,19,10s13.7,0.3,16-2
			S637.5,3805.5,637.5,3796.5z M945.5,3582.5c-0.3-6.3-3.7-11.3-7-12s-2.3-0.3-11,0s-9,2.7-14,4s-5.7-0.7-12-1s-10,1.7-16,6
			s-9.7,14.3-14,19s-17,3-17,3l-3,6c0,0-6.3,0.3-7-1s-3-7-5-10s-6-2.3-12-1s-8.7,4.3-12,8s-2.7,6,2,10s9.7,7.7,14,8s6,6,6,6l5-1
			c0,0,2-7.3,9-7s21.7-0.7,30-2s13-7.3,22-12s19.7-10,25-9s6.7,3.7,11,1S945.8,3588.8,945.5,3582.5z M1324.5,4194.5l-32,1l-1,90h33
			V4194.5z M1324.5,4092.5h-31l-2,92l32-1L1324.5,4092.5z M1549.5,3072.5l11,21l19-36h-16L1549.5,3072.5z M1858.5,1958.5
			c4-2,4.7-9.7,3-16s-14-9-14-9s-3.3,1.3-10,5s-4.7,14-1,18S1854.5,1960.5,1858.5,1958.5z"/>
	</g>
</g>
</svg>
